<?xml version="1.0" encoding="UTF-8" standalone="no"?><!DOCTYPE svg PUBLIC "-//W3C//DTD SVG 1.1//EN" "http://www.w3.org/Graphics/SVG/1.1/DTD/svg11.dtd"><svg width="100%" height="100%" viewBox="0 0 700 200" version="1.1" xmlns="http://www.w3.org/2000/svg" xmlns:xlink="http://www.w3.org/1999/xlink" xml:space="preserve" xmlns:serif="http://www.serif.com/" style="fill-rule:evenodd;clip-rule:evenodd;stroke-linejoin:round;stroke-miterlimit:2;"><path d="M140.158,185.714l-73.997,0c-5.73,0 -11.254,-1.99 -16.574,-5.971c-5.32,-3.98 -9.022,-8.872 -11.105,-14.676c-1.786,-4.985 -1.86,-9.71 -0.223,-14.174c0,-0.298 0.112,-1.302 0.335,-3.014c0.223,-1.711 0.372,-3.087 0.446,-4.129c0.075,-0.595 -0.037,-1.395 -0.335,-2.4c-0.297,-1.004 -0.409,-1.729 -0.334,-2.176c0.148,-0.818 0.446,-1.6 0.892,-2.344c0.447,-0.744 1.061,-1.618 1.842,-2.622c0.781,-1.005 1.395,-1.879 1.841,-2.623c1.712,-2.828 3.386,-6.232 5.023,-10.212c1.637,-3.981 2.753,-7.385 3.348,-10.212c0.223,-0.744 0.242,-1.86 0.056,-3.349c-0.186,-1.488 -0.205,-2.529 -0.056,-3.125c0.223,-0.818 0.856,-1.86 1.897,-3.125c1.042,-1.264 1.674,-2.12 1.898,-2.567c1.562,-2.678 3.125,-6.101 4.687,-10.267c1.563,-4.167 2.493,-7.515 2.79,-10.045c0.075,-0.67 -0.018,-1.86 -0.279,-3.571c-0.26,-1.712 -0.242,-2.753 0.056,-3.125c0.298,-0.968 1.116,-2.102 2.455,-3.404c1.34,-1.303 2.158,-2.14 2.456,-2.512c1.414,-1.934 2.995,-5.078 4.743,-9.43c1.749,-4.353 2.772,-7.943 3.069,-10.771c0.075,-0.595 -0.037,-1.543 -0.334,-2.845c-0.298,-1.303 -0.373,-2.288 -0.224,-2.958c0.149,-0.595 0.484,-1.265 1.005,-2.009c0.52,-0.744 1.19,-1.6 2.009,-2.567c0.818,-0.967 1.45,-1.748 1.897,-2.344c0.595,-0.893 1.209,-2.027 1.841,-3.404c0.633,-1.376 1.191,-2.678 1.675,-3.906c0.483,-1.228 1.078,-2.567 1.785,-4.018c0.707,-1.451 1.433,-2.641 2.177,-3.571c0.744,-0.93 1.73,-1.805 2.957,-2.623c1.228,-0.818 2.567,-1.246 4.018,-1.284c1.451,-0.037 3.218,0.168 5.301,0.614l-0.111,0.335c2.827,-0.67 4.725,-1.004 5.692,-1.004l84.933,0c5.506,0 9.747,2.083 12.723,6.25c2.976,4.166 3.646,9.003 2.009,14.509l-20.6,68.115c-1.255,-0.178 -2.538,-0.27 -3.842,-0.27c-14.979,0 -27.122,12.143 -27.122,27.122l0,9.22l-1.951,0c-5.949,0 -10.769,4.819 -10.769,10.768l0,7.143l-85.604,0c-2.01,0 -3.423,0.558 -4.241,1.674c-0.819,1.19 -0.856,2.79 -0.112,4.799c1.786,5.208 7.143,7.813 16.071,7.813l73.886,0l0,14.285Zm41.08,-26.554c1.474,0.511 2.53,1.911 2.53,3.56c0,1.326 -0.683,2.493 -1.723,3.165l-1.93,1.246l0.375,2.266l0.001,0.003l0.001,0.009l0.006,0.037l0.024,0.143l0.091,0.553c0.079,0.48 0.192,1.172 0.33,2.022c0.228,1.398 0.523,3.222 0.842,5.226l-3.566,0l1.293,-8.006l0.365,-2.258l-1.025,-0.662c0.242,-0.44 0.439,-0.906 0.59,-1.397l1.796,-5.907Zm-2.191,-40.144l-5.185,17.145c-0.324,1.07 -0.647,2.093 -0.97,3.071l-3.929,0l0,-9.22c0,-5.777 4.433,-10.514 10.084,-10.996Zm11.75,8.694c0.157,0.742 0.24,1.513 0.24,2.302l0,9.22l-3.742,0l3.502,-11.522Zm5.816,-19.137l16.311,-53.662c0.521,-1.637 0.707,-3.758 0.558,-6.362c2.828,1.116 5.022,2.716 6.585,4.799c2.976,4.241 3.646,9.04 2.009,14.398l-16.316,53.754c-1.709,-5.174 -4.933,-9.658 -9.147,-12.927Zm-29.671,-37.144l-67.857,0c-0.968,0 -1.916,0.353 -2.846,1.06c-0.93,0.707 -1.544,1.544 -1.842,2.511l-2.343,7.143c-0.298,0.967 -0.224,1.804 0.223,2.511c0.446,0.707 1.19,1.06 2.232,1.06l67.857,0c0.967,0 1.916,-0.353 2.846,-1.06c0.93,-0.707 1.544,-1.544 1.842,-2.511l2.343,-7.143c0.298,-0.967 0.224,-1.804 -0.223,-2.511c-0.446,-0.707 -1.19,-1.06 -2.232,-1.06Zm9.263,-28.572l-67.857,0c-0.968,0 -1.916,0.354 -2.846,1.06c-0.93,0.707 -1.544,1.544 -1.841,2.512l-2.344,7.142c-0.298,0.968 -0.223,1.805 0.223,2.512c0.447,0.706 1.191,1.06 2.232,1.06l67.857,0c0.968,0 1.916,-0.354 2.846,-1.06c0.93,-0.707 1.544,-1.544 1.842,-2.512l2.344,-7.142c0.297,-0.968 0.223,-1.805 -0.224,-2.512c-0.446,-0.706 -1.19,-1.06 -2.232,-1.06Z" style="fill:#042c2f;fill-rule:nonzero;"/><path d="M156.378,130.012l0,12.72l-5.451,0c-4.016,0 -7.269,3.252 -7.269,7.268l0,36.342c0,4.016 3.253,7.268 7.269,7.268l58.146,0c4.016,0 7.269,-3.252 7.269,-7.268l0,-36.342c0,-4.016 -3.253,-7.268 -7.269,-7.268l-5.45,0l0,-12.72c0,-13.046 -10.577,-23.622 -23.623,-23.622c-13.046,0 -23.622,10.576 -23.622,23.622Zm9.085,12.72l0,-12.72c0,-8.031 6.505,-14.537 14.537,-14.537c8.032,0 14.537,6.506 14.537,14.537l0,12.72l-29.074,0Zm7.269,19.988c0,-4.016 3.252,-7.268 7.268,-7.268c4.016,0 7.268,3.252 7.268,7.268c0,2.562 -1.327,4.816 -3.325,6.106c0,0 0.71,4.289 1.509,9.339c0,1.508 -1.218,2.725 -2.726,2.725l-5.452,0c-1.508,0 -2.725,-1.217 -2.725,-2.725l1.508,-9.339c-1.998,-1.29 -3.325,-3.544 -3.325,-6.106Z" style="fill:#2da6ad;"/><text x="265.152px" y="150.509px" style="font-family:'Gotham-Light', 'Gotham Light';font-weight:500;font-size:144px;">TR<tspan x="458.976px 553.44px " y="150.509px 150.509px ">YG</tspan></text></svg>